<svg width="185" height="28" viewBox="0 0 185 28" fill="none" xmlns="http://www.w3.org/2000/svg">
<path d="M0.952 27V1.08H8.568C10.1253 1.08 11.384 1.368 12.344 1.944C13.3253 2.52 14.04 3.36267 14.488 4.472C14.9573 5.56 15.192 6.88266 15.192 8.44C15.192 10.1253 14.904 11.4907 14.328 12.536C13.752 13.56 12.9413 14.3067 11.896 14.776C10.872 15.2453 9.656 15.48 8.248 15.48H5.688V27H0.952ZM5.688 12.152H7.48C8.33333 12.152 8.99467 12.0347 9.464 11.8C9.95467 11.544 10.2853 11.1493 10.456 10.616C10.648 10.0613 10.744 9.32533 10.744 8.408C10.744 7.46933 10.6693 6.712 10.52 6.136C10.392 5.53867 10.0933 5.10133 9.624 4.824C9.176 4.54667 8.46133 4.408 7.48 4.408H5.688V12.152ZM23.0453 27.288C21.7013 27.288 20.5919 27.0427 19.7173 26.552C18.8426 26.04 18.1813 25.304 17.7333 24.344C17.3066 23.384 17.0933 22.2213 17.0933 20.856V14.648C17.0933 13.2827 17.3066 12.12 17.7333 11.16C18.1813 10.2 18.8426 9.47467 19.7173 8.984C20.5919 8.472 21.7013 8.216 23.0453 8.216C24.3893 8.216 25.4986 8.472 26.3733 8.984C27.2693 9.47467 27.9306 10.2 28.3573 11.16C28.8053 12.12 29.0293 13.2827 29.0293 14.648V20.856C29.0293 22.2213 28.8053 23.384 28.3573 24.344C27.9306 25.304 27.2693 26.04 26.3733 26.552C25.4986 27.0427 24.3893 27.288 23.0453 27.288ZM23.0773 24.28C23.5679 24.28 23.9306 24.1413 24.1653 23.864C24.3999 23.5867 24.5493 23.2133 24.6133 22.744C24.6773 22.2533 24.7093 21.72 24.7093 21.144V14.36C24.7093 13.784 24.6773 13.2613 24.6133 12.792C24.5493 12.3227 24.3999 11.9493 24.1653 11.672C23.9306 11.3733 23.5679 11.224 23.0773 11.224C22.5866 11.224 22.2239 11.3733 21.9893 11.672C21.7546 11.9493 21.5946 12.3227 21.5093 12.792C21.4453 13.2613 21.4133 13.784 21.4133 14.36V21.144C21.4133 21.72 21.4453 22.2533 21.5093 22.744C21.5946 23.2133 21.7546 23.5867 21.9893 23.864C22.2239 24.1413 22.5866 24.28 23.0773 24.28ZM32.1038 27V8.504H36.4558V11.352C37.0958 10.264 37.7358 9.48533 38.3758 9.016C39.0158 8.52533 39.7198 8.28 40.4878 8.28C40.6158 8.28 40.7224 8.29067 40.8078 8.312C40.9144 8.312 41.0318 8.32267 41.1598 8.344V12.856C40.9038 12.7493 40.6158 12.664 40.2958 12.6C39.9971 12.5147 39.6878 12.472 39.3678 12.472C38.7918 12.472 38.2691 12.6107 37.7998 12.888C37.3304 13.1653 36.8824 13.624 36.4558 14.264V27H32.1038ZM48.633 27.224C47.4597 27.224 46.5317 27.032 45.849 26.648C45.1877 26.264 44.7183 25.7093 44.441 24.984C44.1637 24.2587 44.025 23.3947 44.025 22.392V11.384H42.169V8.504H44.025V2.968H48.409V8.504H51.225V11.384H48.409V22.008C48.409 22.648 48.5477 23.1067 48.825 23.384C49.1023 23.64 49.5183 23.768 50.073 23.768C50.3077 23.768 50.5317 23.7573 50.745 23.736C50.9797 23.7147 51.2037 23.6933 51.417 23.672V27C51.0543 27.0427 50.6277 27.0853 50.137 27.128C49.6677 27.192 49.1663 27.224 48.633 27.224ZM54.81 27V11.544H52.826V8.504H54.81V7.32C54.81 6.21067 54.906 5.25067 55.098 4.44C55.3113 3.608 55.738 2.968 56.378 2.52C57.0393 2.072 58.0313 1.848 59.354 1.848C59.7593 1.848 60.1433 1.86933 60.506 1.912C60.8687 1.93333 61.274 1.976 61.722 2.04V5.272C61.5513 5.22933 61.3487 5.19733 61.114 5.176C60.9007 5.13333 60.698 5.112 60.506 5.112C59.994 5.112 59.642 5.272 59.45 5.592C59.258 5.912 59.162 6.38133 59.162 7V8.504H61.722V11.544H59.162V27H54.81ZM69.2328 27.288C67.8888 27.288 66.7794 27.0427 65.9048 26.552C65.0301 26.04 64.3688 25.304 63.9208 24.344C63.4941 23.384 63.2808 22.2213 63.2808 20.856V14.648C63.2808 13.2827 63.4941 12.12 63.9208 11.16C64.3688 10.2 65.0301 9.47467 65.9048 8.984C66.7794 8.472 67.8888 8.216 69.2328 8.216C70.5768 8.216 71.6861 8.472 72.5608 8.984C73.4568 9.47467 74.1181 10.2 74.5448 11.16C74.9928 12.12 75.2168 13.2827 75.2168 14.648V20.856C75.2168 22.2213 74.9928 23.384 74.5448 24.344C74.1181 25.304 73.4568 26.04 72.5608 26.552C71.6861 27.0427 70.5768 27.288 69.2328 27.288ZM69.2648 24.28C69.7554 24.28 70.1181 24.1413 70.3528 23.864C70.5874 23.5867 70.7368 23.2133 70.8008 22.744C70.8648 22.2533 70.8968 21.72 70.8968 21.144V14.36C70.8968 13.784 70.8648 13.2613 70.8008 12.792C70.7368 12.3227 70.5874 11.9493 70.3528 11.672C70.1181 11.3733 69.7554 11.224 69.2648 11.224C68.7741 11.224 68.4114 11.3733 68.1768 11.672C67.9421 11.9493 67.7821 12.3227 67.6968 12.792C67.6328 13.2613 67.6008 13.784 67.6008 14.36V21.144C67.6008 21.72 67.6328 22.2533 67.6968 22.744C67.7821 23.2133 67.9421 23.5867 68.1768 23.864C68.4114 24.1413 68.7741 24.28 69.2648 24.28ZM78.4833 27V1.08H82.8033V27H78.4833ZM86.3858 27V8.504H90.7378V27H86.3858ZM86.3858 5.56V1.944H90.7378V5.56H86.3858ZM99.7953 27.288C98.4513 27.288 97.3419 27.0427 96.4673 26.552C95.5926 26.04 94.9313 25.304 94.4833 24.344C94.0566 23.384 93.8433 22.2213 93.8433 20.856V14.648C93.8433 13.2827 94.0566 12.12 94.4833 11.16C94.9313 10.2 95.5926 9.47467 96.4673 8.984C97.3419 8.472 98.4513 8.216 99.7953 8.216C101.139 8.216 102.249 8.472 103.123 8.984C104.019 9.47467 104.681 10.2 105.107 11.16C105.555 12.12 105.779 13.2827 105.779 14.648V20.856C105.779 22.2213 105.555 23.384 105.107 24.344C104.681 25.304 104.019 26.04 103.123 26.552C102.249 27.0427 101.139 27.288 99.7953 27.288ZM99.8273 24.28C100.318 24.28 100.681 24.1413 100.915 23.864C101.15 23.5867 101.299 23.2133 101.363 22.744C101.427 22.2533 101.459 21.72 101.459 21.144V14.36C101.459 13.784 101.427 13.2613 101.363 12.792C101.299 12.3227 101.15 11.9493 100.915 11.672C100.681 11.3733 100.318 11.224 99.8273 11.224C99.3366 11.224 98.9739 11.3733 98.7393 11.672C98.5046 11.9493 98.3446 12.3227 98.2593 12.792C98.1953 13.2613 98.1633 13.784 98.1633 14.36V21.144C98.1633 21.72 98.1953 22.2533 98.2593 22.744C98.3446 23.2133 98.5046 23.5867 98.7393 23.864C98.9739 24.1413 99.3366 24.28 99.8273 24.28ZM131.448 27.352C129.741 27.352 128.387 26.9893 127.384 26.264C126.381 25.5387 125.656 24.5147 125.208 23.192C124.781 21.848 124.568 20.2693 124.568 18.456V9.752C124.568 7.896 124.781 6.296 125.208 4.952C125.635 3.608 126.381 2.584 127.448 1.88C128.536 1.15466 130.029 0.791998 131.928 0.791998C133.699 0.791998 135.107 1.09067 136.152 1.688C137.197 2.28533 137.944 3.14933 138.392 4.28C138.861 5.38933 139.096 6.744 139.096 8.344V9.688H134.584V8.216C134.584 7.384 134.52 6.66933 134.392 6.072C134.285 5.47467 134.051 5.02667 133.688 4.728C133.347 4.408 132.781 4.248 131.992 4.248C131.16 4.248 130.552 4.45067 130.168 4.856C129.805 5.26133 129.571 5.79467 129.464 6.456C129.379 7.11733 129.336 7.84267 129.336 8.632V19.48C129.336 20.376 129.411 21.1547 129.56 21.816C129.709 22.4773 129.987 22.9893 130.392 23.352C130.797 23.6933 131.373 23.864 132.12 23.864C132.888 23.864 133.475 23.672 133.88 23.288C134.285 22.904 134.563 22.3707 134.712 21.688C134.883 21.0053 134.968 20.1947 134.968 19.256V16.824H132.184V13.848H139.224V27H136.184L135.832 24.44C135.491 25.2933 134.968 25.9973 134.264 26.552C133.581 27.0853 132.643 27.352 131.448 27.352ZM142.635 27V8.504H146.987V11.352C147.627 10.264 148.267 9.48533 148.907 9.016C149.547 8.52533 150.251 8.28 151.019 8.28C151.147 8.28 151.254 8.29067 151.339 8.312C151.446 8.312 151.563 8.32267 151.691 8.344V12.856C151.435 12.7493 151.147 12.664 150.827 12.6C150.528 12.5147 150.219 12.472 149.899 12.472C149.323 12.472 148.8 12.6107 148.331 12.888C147.862 13.1653 147.414 13.624 146.987 14.264V27H142.635ZM159.42 27.288C158.076 27.288 156.967 27.0427 156.092 26.552C155.218 26.04 154.556 25.304 154.108 24.344C153.682 23.384 153.468 22.2213 153.468 20.856V14.648C153.468 13.2827 153.682 12.12 154.108 11.16C154.556 10.2 155.218 9.47467 156.092 8.984C156.967 8.472 158.076 8.216 159.42 8.216C160.764 8.216 161.874 8.472 162.748 8.984C163.644 9.47467 164.306 10.2 164.732 11.16C165.18 12.12 165.404 13.2827 165.404 14.648V20.856C165.404 22.2213 165.18 23.384 164.732 24.344C164.306 25.304 163.644 26.04 162.748 26.552C161.874 27.0427 160.764 27.288 159.42 27.288ZM159.452 24.28C159.943 24.28 160.306 24.1413 160.54 23.864C160.775 23.5867 160.924 23.2133 160.988 22.744C161.052 22.2533 161.084 21.72 161.084 21.144V14.36C161.084 13.784 161.052 13.2613 160.988 12.792C160.924 12.3227 160.775 11.9493 160.54 11.672C160.306 11.3733 159.943 11.224 159.452 11.224C158.962 11.224 158.599 11.3733 158.364 11.672C158.13 11.9493 157.97 12.3227 157.884 12.792C157.82 13.2613 157.788 13.784 157.788 14.36V21.144C157.788 21.72 157.82 22.2533 157.884 22.744C157.97 23.2133 158.13 23.5867 158.364 23.864C158.599 24.1413 158.962 24.28 159.452 24.28ZM170.179 27L167.331 8.504H170.947L172.579 20.504L174.499 8.504H177.731L179.555 20.632L181.315 8.504H184.739L181.827 27H178.147L176.099 15.32L173.955 27H170.179Z" fill="#303030"/>
<path d="M108.406 27V23.864L114.806 13.976C115.275 13.2507 115.712 12.5573 116.118 11.896C116.544 11.2347 116.886 10.552 117.142 9.848C117.419 9.12267 117.558 8.33333 117.558 7.48C117.558 6.52 117.387 5.784 117.046 5.272C116.704 4.76 116.171 4.504 115.446 4.504C114.763 4.504 114.23 4.696 113.846 5.08C113.462 5.464 113.195 5.96533 113.046 6.584C112.918 7.20267 112.854 7.88533 112.854 8.632V9.72H108.502V8.568C108.502 7.032 108.726 5.688 109.174 4.536C109.643 3.36267 110.379 2.44533 111.382 1.784C112.384 1.12266 113.696 0.791998 115.318 0.791998C117.536 0.791998 119.2 1.38933 120.31 2.584C121.419 3.77867 121.974 5.44267 121.974 7.576C121.974 8.64267 121.824 9.61333 121.526 10.488C121.227 11.3413 120.832 12.1627 120.342 12.952C119.851 13.7413 119.318 14.552 118.742 15.384L113.43 23.448H121.302V27H108.406Z" fill="#909090"/>
</svg>
